<?xml version="1.0" encoding="UTF-8"?>
<svg width="197px" height="62px" viewBox="0 0 197 62" version="1.1" xmlns="http://www.w3.org/2000/svg" xmlns:xlink="http://www.w3.org/1999/xlink">
    <!-- Generator: Sketch 47.1 (45422) - http://www.bohemiancoding.com/sketch -->
    <title>Group</title>
    <desc>Created with Sketch.</desc>
    <defs></defs>
    <g id="Page-1" stroke="none" stroke-width="1" fill="none" fill-rule="evenodd">
        <g id="Group" transform="translate(-16.000000, -13.000000)">
            <path d="M31.9390777,68.946 L31.9390777,72 L30.3250777,72 L30.3250777,63.324 L33.1510777,63.324 C33.7310806,63.324 34.2330755,63.3919993 34.6570777,63.528 C35.0810798,63.6640007 35.4310763,63.8539988 35.7070777,64.098 C35.983079,64.3420012 36.187077,64.6339983 36.3190777,64.974 C36.4510783,65.3140017 36.5170777,65.685998 36.5170777,66.09 C36.5170777,66.5100021 36.4470784,66.8949983 36.3070777,67.245 C36.167077,67.5950017 35.9570791,67.8959987 35.6770777,68.148 C35.3970763,68.4000013 35.0470798,68.5959993 34.6270777,68.736 C34.2070756,68.8760007 33.7150805,68.946 33.1510777,68.946 L31.9390777,68.946 Z M31.9390777,67.686 L33.1510777,67.686 C33.4470791,67.686 33.7050766,67.6490004 33.9250777,67.575 C34.1450788,67.5009996 34.3270769,67.3950007 34.4710777,67.257 C34.6150784,67.1189993 34.7230773,66.951001 34.7950777,66.753 C34.867078,66.554999 34.9030777,66.3340012 34.9030777,66.09 C34.9030777,65.8579988 34.867078,65.6480009 34.7950777,65.46 C34.7230773,65.2719991 34.6150784,65.1120007 34.4710777,64.98 C34.3270769,64.8479993 34.1450788,64.7470004 33.9250777,64.677 C33.7050766,64.6069997 33.4470791,64.572 33.1510777,64.572 L31.9390777,64.572 L31.9390777,67.686 Z M39.5604621,63.084 L39.5604621,72 L38.0784621,72 L38.0784621,63.084 L39.5604621,63.084 Z M46.3538466,72 L45.6878466,72 C45.5478459,72 45.437847,71.9790002 45.3578466,71.937 C45.2778462,71.8949998 45.2178468,71.8100006 45.1778466,71.682 L45.0458466,71.244 C44.8898458,71.3840007 44.7368474,71.5069995 44.5868466,71.613 C44.4368459,71.7190005 44.2818474,71.8079996 44.1218466,71.88 C43.9618458,71.9520004 43.7918475,72.0059998 43.6118466,72.042 C43.4318457,72.0780002 43.2318477,72.096 43.0118466,72.096 C42.7518453,72.096 42.5118477,72.0610004 42.2918466,71.991 C42.0718455,71.9209996 41.8828474,71.8160007 41.7248466,71.676 C41.5668458,71.5359993 41.443847,71.362001 41.3558466,71.154 C41.2678462,70.945999 41.2238466,70.7040014 41.2238466,70.428 C41.2238466,70.1959988 41.284846,69.9670011 41.4068466,69.741 C41.5288472,69.5149989 41.7318452,69.3110009 42.0158466,69.129 C42.299848,68.9469991 42.6778442,68.7960006 43.1498466,68.676 C43.621849,68.5559994 44.2078431,68.4880001 44.9078466,68.472 L44.9078466,68.112 C44.9078466,67.6999979 44.8208475,67.395001 44.6468466,67.197 C44.4728457,66.998999 44.2198483,66.9 43.8878466,66.9 C43.6478454,66.9 43.4478474,66.9279997 43.2878466,66.984 C43.1278458,67.0400003 42.9888472,67.1029997 42.8708466,67.173 C42.752846,67.2430004 42.6438471,67.3059997 42.5438466,67.362 C42.4438461,67.4180003 42.3338472,67.446 42.2138466,67.446 C42.1138461,67.446 42.027847,67.4200003 41.9558466,67.368 C41.8838462,67.3159997 41.8258468,67.2520004 41.7818466,67.176 L41.5118466,66.702 C42.2198501,66.0539968 43.0738416,65.73 44.0738466,65.73 C44.4338484,65.73 44.7548452,65.7889994 45.0368466,65.907 C45.318848,66.0250006 45.5578456,66.1889989 45.7538466,66.399 C45.9498476,66.6090011 46.0988461,66.8599985 46.2008466,67.152 C46.3028471,67.4440015 46.3538466,67.7639983 46.3538466,68.112 L46.3538466,72 Z M43.4738466,71.076 C43.6258474,71.076 43.765846,71.0620001 43.8938466,71.034 C44.0218472,71.0059999 44.142846,70.9640003 44.2568466,70.908 C44.3708472,70.8519997 44.4808461,70.7830004 44.5868466,70.701 C44.6928471,70.6189996 44.7998461,70.5220006 44.9078466,70.41 L44.9078466,69.372 C44.4758444,69.3920001 44.1148481,69.4289997 43.8248466,69.483 C43.5348452,69.5370003 43.3018475,69.6059996 43.1258466,69.69 C42.9498457,69.7740004 42.824847,69.8719994 42.7508466,69.984 C42.6768462,70.0960006 42.6398466,70.2179993 42.6398466,70.35 C42.6398466,70.6100013 42.7168458,70.7959994 42.8708466,70.908 C43.0248474,71.0200006 43.2258454,71.076 43.4738466,71.076 Z M50.0752311,73.692 C50.0312308,73.7960005 49.9742314,73.8749997 49.9042311,73.929 C49.8342307,73.9830003 49.7272318,74.01 49.5832311,74.01 L48.4792311,74.01 L49.6312311,71.544 L47.1412311,65.844 L48.4372311,65.844 C48.5572317,65.844 48.6492307,65.8719997 48.7132311,65.928 C48.7772314,65.9840003 48.8252309,66.0479996 48.8572311,66.12 L50.1712311,69.312 C50.2152313,69.4160005 50.2532309,69.5239994 50.2852311,69.636 C50.3172312,69.7480006 50.3452309,69.8599994 50.3692311,69.972 C50.4012312,69.8559994 50.4362309,69.7440005 50.4742311,69.636 C50.5122313,69.5279995 50.5532308,69.4180006 50.5972311,69.306 L51.8332311,66.12 C51.8652312,66.0399996 51.9182307,65.9740003 51.9922311,65.922 C52.0662314,65.8699997 52.1492306,65.844 52.2412311,65.844 L53.4292311,65.844 L50.0752311,73.692 Z M61.268,70.812 C61.6320018,70.812 61.9489986,70.7790003 62.219,70.713 C62.4890013,70.6469997 62.7459988,70.5560006 62.99,70.44 L62.99,68.862 L61.904,68.862 C61.7999995,68.862 61.7180003,68.8330003 61.658,68.775 C61.5979997,68.7169997 61.568,68.6460004 61.568,68.562 L61.568,67.65 L64.454,67.65 L64.454,71.16 C64.2339989,71.3200008 64.0050012,71.4589994 63.767,71.577 C63.5289988,71.6950006 63.2750013,71.7919996 63.005,71.868 C62.7349986,71.9440004 62.4460015,72.0009998 62.138,72.039 C61.8299985,72.0770002 61.4980018,72.096 61.142,72.096 C60.5099968,72.096 59.9280027,71.9860011 59.396,71.766 C58.8639973,71.5459989 58.4040019,71.240002 58.016,70.848 C57.6279981,70.455998 57.3250011,69.9880027 57.107,69.444 C56.8889989,68.8999973 56.78,68.3060032 56.78,67.662 C56.78,67.0099967 56.8859989,66.4120027 57.098,65.868 C57.3100011,65.3239973 57.610998,64.856002 58.001,64.464 C58.391002,64.071998 58.8639972,63.7680011 59.42,63.552 C59.9760028,63.3359989 60.5999965,63.228 61.292,63.228 C62.0000035,63.228 62.6129974,63.332999 63.131,63.543 C63.6490026,63.7530011 64.0879982,64.0259983 64.448,64.362 L63.98,65.094 C63.8879995,65.2420007 63.7660008,65.316 63.614,65.316 C63.5179995,65.316 63.4200005,65.2840003 63.32,65.22 C63.1919994,65.1439996 63.0610007,65.0680004 62.927,64.992 C62.7929993,64.9159996 62.6450008,64.8500003 62.483,64.794 C62.3209992,64.7379997 62.139001,64.6920002 61.937,64.656 C61.734999,64.6199998 61.5020013,64.602 61.238,64.602 C60.8099979,64.602 60.4230017,64.6739993 60.077,64.818 C59.7309983,64.9620007 59.4360012,65.1679987 59.192,65.436 C58.9479988,65.7040013 58.7600007,66.0259981 58.628,66.402 C58.4959993,66.7780019 58.43,67.1979977 58.43,67.662 C58.43,68.1620025 58.4999993,68.6069981 58.64,68.997 C58.7800007,69.3870019 58.9759987,69.7159987 59.228,69.984 C59.4800013,70.2520013 59.7799983,70.4569993 60.128,70.599 C60.4760017,70.7410007 60.8559979,70.812 61.268,70.812 Z M70.9953845,72 L70.3293845,72 C70.1893838,72 70.0793849,71.9790002 69.9993845,71.937 C69.9193841,71.8949998 69.8593847,71.8100006 69.8193845,71.682 L69.6873845,71.244 C69.5313837,71.3840007 69.3783852,71.5069995 69.2283845,71.613 C69.0783837,71.7190005 68.9233853,71.8079996 68.7633845,71.88 C68.6033837,71.9520004 68.4333854,72.0059998 68.2533845,72.042 C68.0733836,72.0780002 67.8733856,72.096 67.6533845,72.096 C67.3933832,72.096 67.1533856,72.0610004 66.9333845,71.991 C66.7133834,71.9209996 66.5243853,71.8160007 66.3663845,71.676 C66.2083837,71.5359993 66.0853849,71.362001 65.9973845,71.154 C65.909384,70.945999 65.8653845,70.7040014 65.8653845,70.428 C65.8653845,70.1959988 65.9263839,69.9670011 66.0483845,69.741 C66.1703851,69.5149989 66.373383,69.3110009 66.6573845,69.129 C66.9413859,68.9469991 67.3193821,68.7960006 67.7913845,68.676 C68.2633868,68.5559994 68.849381,68.4880001 69.5493845,68.472 L69.5493845,68.112 C69.5493845,67.6999979 69.4623853,67.395001 69.2883845,67.197 C69.1143836,66.998999 68.8613861,66.9 68.5293845,66.9 C68.2893833,66.9 68.0893853,66.9279997 67.9293845,66.984 C67.7693837,67.0400003 67.6303851,67.1029997 67.5123845,67.173 C67.3943839,67.2430004 67.285385,67.3059997 67.1853845,67.362 C67.085384,67.4180003 66.9753851,67.446 66.8553845,67.446 C66.755384,67.446 66.6693848,67.4200003 66.5973845,67.368 C66.5253841,67.3159997 66.4673847,67.2520004 66.4233845,67.176 L66.1533845,66.702 C66.861388,66.0539968 67.7153795,65.73 68.7153845,65.73 C69.0753863,65.73 69.3963831,65.7889994 69.6783845,65.907 C69.9603859,66.0250006 70.1993835,66.1889989 70.3953845,66.399 C70.5913854,66.6090011 70.740384,66.8599985 70.8423845,67.152 C70.944385,67.4440015 70.9953845,67.7639983 70.9953845,68.112 L70.9953845,72 Z M68.1153845,71.076 C68.2673852,71.076 68.4073838,71.0620001 68.5353845,71.034 C68.6633851,71.0059999 68.7843839,70.9640003 68.8983845,70.908 C69.012385,70.8519997 69.1223839,70.7830004 69.2283845,70.701 C69.334385,70.6189996 69.4413839,70.5220006 69.5493845,70.41 L69.5493845,69.372 C69.1173823,69.3920001 68.7563859,69.4289997 68.4663845,69.483 C68.176383,69.5370003 67.9433853,69.6059996 67.7673845,69.69 C67.5913836,69.7740004 67.4663848,69.8719994 67.3923845,69.984 C67.3183841,70.0960006 67.2813845,70.2179993 67.2813845,70.35 C67.2813845,70.6100013 67.3583837,70.7959994 67.5123845,70.908 C67.6663852,71.0200006 67.8673832,71.076 68.1153845,71.076 Z M72.7487689,72 L72.7487689,65.844 L73.6547689,65.844 C73.8467699,65.844 73.9727686,65.9339991 74.0327689,66.114 L74.1287689,66.57 C74.2367695,66.4499994 74.3497683,66.3400005 74.4677689,66.24 C74.5857695,66.1399995 74.7117683,66.0540004 74.8457689,65.982 C74.9797696,65.9099996 75.1237682,65.8530002 75.2777689,65.811 C75.4317697,65.7689998 75.600768,65.748 75.7847689,65.748 C76.1727709,65.748 76.4917677,65.8529989 76.7417689,66.063 C76.9917702,66.2730011 77.1787683,66.5519983 77.3027689,66.9 C77.3987694,66.695999 77.5187682,66.5210007 77.6627689,66.375 C77.8067697,66.2289993 77.9647681,66.1100005 78.1367689,66.018 C78.3087698,65.9259995 78.491768,65.8580002 78.6857689,65.814 C78.8797699,65.7699998 79.074768,65.748 79.2707689,65.748 C79.6107706,65.748 79.9127676,65.7999995 80.1767689,65.904 C80.4407703,66.0080005 80.662768,66.159999 80.8427689,66.36 C81.0227698,66.560001 81.1597685,66.8039986 81.2537689,67.092 C81.3477694,67.3800014 81.3947689,67.7099981 81.3947689,68.082 L81.3947689,72 L79.9127689,72 L79.9127689,68.082 C79.9127689,67.689998 79.8267698,67.395001 79.6547689,67.197 C79.4827681,66.998999 79.2307706,66.9 78.8987689,66.9 C78.7467682,66.9 78.6057696,66.9259997 78.4757689,66.978 C78.3457683,67.0300003 78.2317694,67.1049995 78.1337689,67.203 C78.0357684,67.3010005 77.9587692,67.4239993 77.9027689,67.572 C77.8467687,67.7200007 77.8187689,67.889999 77.8187689,68.082 L77.8187689,72 L76.3307689,72 L76.3307689,68.082 C76.3307689,67.6699979 76.2477698,67.3700009 76.0817689,67.182 C75.9157681,66.9939991 75.6707706,66.9 75.3467689,66.9 C75.1347679,66.9 74.9357699,66.9529995 74.7497689,67.059 C74.563768,67.1650005 74.3907697,67.3099991 74.2307689,67.494 L74.2307689,72 L72.7487689,72 Z M85.6921534,65.748 C86.0801553,65.748 86.4371518,65.8099994 86.7631534,65.934 C87.089155,66.0580006 87.3701522,66.2389988 87.6061534,66.477 C87.8421546,66.7150012 88.0261527,67.0069983 88.1581534,67.353 C88.2901541,67.6990017 88.3561534,68.0939978 88.3561534,68.538 C88.3561534,68.6500006 88.3511534,68.7429996 88.3411534,68.817 C88.3311533,68.8910004 88.3131535,68.9489998 88.2871534,68.991 C88.2611533,69.0330002 88.2261536,69.0629999 88.1821534,69.081 C88.1381532,69.0990001 88.0821537,69.108 88.0141534,69.108 L84.2101534,69.108 C84.2541536,69.7400032 84.4241519,70.2039985 84.7201534,70.5 C85.0161549,70.7960015 85.408151,70.944 85.8961534,70.944 C86.1361546,70.944 86.3431525,70.9160003 86.5171534,70.86 C86.6911543,70.8039997 86.8431527,70.7420003 86.9731534,70.674 C87.103154,70.6059997 87.2171529,70.5440003 87.3151534,70.488 C87.4131539,70.4319997 87.5081529,70.404 87.6001534,70.404 C87.6601537,70.404 87.7121532,70.4159999 87.7561534,70.44 C87.8001536,70.4640001 87.8381532,70.4979998 87.8701534,70.542 L88.3021534,71.082 C88.1381526,71.274001 87.9541544,71.4349993 87.7501534,71.565 C87.5461524,71.6950006 87.3331545,71.7989996 87.1111534,71.877 C86.8891523,71.9550004 86.6631545,72.0099998 86.4331534,72.042 C86.2031522,72.0740002 85.9801545,72.09 85.7641534,72.09 C85.3361513,72.09 84.9381552,72.0190007 84.5701534,71.877 C84.2021516,71.7349993 83.8821548,71.5250014 83.6101534,71.247 C83.338152,70.9689986 83.1241542,70.6250021 82.9681534,70.215 C82.8121526,69.804998 82.7341534,69.3300027 82.7341534,68.79 C82.7341534,68.3699979 82.8021527,67.9750018 82.9381534,67.605 C83.0741541,67.2349981 83.2691521,66.9130014 83.5231534,66.639 C83.7771547,66.3649986 84.0871516,66.1480008 84.4531534,65.988 C84.8191552,65.8279992 85.2321511,65.748 85.6921534,65.748 Z M85.7221534,66.81 C85.2901512,66.81 84.9521546,66.9319988 84.7081534,67.176 C84.4641522,67.4200012 84.3081537,67.7659978 84.2401534,68.214 L87.0241534,68.214 C87.0241534,68.021999 86.9981537,67.8410009 86.9461534,67.671 C86.8941531,67.5009991 86.8141539,67.3520006 86.7061534,67.224 C86.5981529,67.0959994 86.4621542,66.9950004 86.2981534,66.921 C86.1341526,66.8469996 85.9421545,66.81 85.7221534,66.81 Z M93.5115379,67.044 C93.4715377,67.1080003 93.4295381,67.1529999 93.3855379,67.179 C93.3415376,67.2050001 93.2855382,67.218 93.2175379,67.218 C93.1455375,67.218 93.0685383,67.1980002 92.9865379,67.158 C92.9045375,67.1179998 92.8095384,67.0730003 92.7015379,67.023 C92.5935373,66.9729997 92.4705386,66.9280002 92.3325379,66.888 C92.1945372,66.8479998 92.0315388,66.828 91.8435379,66.828 C91.5515364,66.828 91.3215387,66.8899994 91.1535379,67.014 C90.985537,67.1380006 90.9015379,67.299999 90.9015379,67.5 C90.9015379,67.6320007 90.9445374,67.7429996 91.0305379,67.833 C91.1165383,67.9230005 91.2305372,68.0019997 91.3725379,68.07 C91.5145386,68.1380003 91.675537,68.1989997 91.8555379,68.253 C92.0355388,68.3070003 92.2195369,68.3659997 92.4075379,68.43 C92.5955388,68.4940003 92.779537,68.5669996 92.9595379,68.649 C93.1395388,68.7310004 93.3005372,68.8349994 93.4425379,68.961 C93.5845386,69.0870006 93.6985374,69.2379991 93.7845379,69.414 C93.8705383,69.5900009 93.9135379,69.8019988 93.9135379,70.05 C93.9135379,70.3460015 93.8595384,70.6189988 93.7515379,70.869 C93.6435373,71.1190012 93.4855389,71.3349991 93.2775379,71.517 C93.0695368,71.6990009 92.8125394,71.8409995 92.5065379,71.943 C92.2005363,72.0450005 91.8495398,72.096 91.4535379,72.096 C91.2415368,72.096 91.0345389,72.0770002 90.8325379,72.039 C90.6305369,72.0009998 90.4365388,71.9480003 90.2505379,71.88 C90.0645369,71.8119997 89.8925387,71.7320005 89.7345379,71.64 C89.5765371,71.5479995 89.4375385,71.4480005 89.3175379,71.34 L89.6595379,70.776 C89.7035381,70.7079997 89.7555376,70.6560002 89.8155379,70.62 C89.8755382,70.5839998 89.9515374,70.566 90.0435379,70.566 C90.1355383,70.566 90.2225375,70.5919997 90.3045379,70.644 C90.3865383,70.6960003 90.4815373,70.7519997 90.5895379,70.812 C90.6975384,70.8720003 90.8245371,70.9279997 90.9705379,70.98 C91.1165386,71.0320003 91.3015367,71.058 91.5255379,71.058 C91.7015387,71.058 91.8525372,71.0370002 91.9785379,70.995 C92.1045385,70.9529998 92.2085375,70.8980003 92.2905379,70.83 C92.3725383,70.7619997 92.4325377,70.6830004 92.4705379,70.593 C92.5085381,70.5029995 92.5275379,70.4100005 92.5275379,70.314 C92.5275379,70.1699993 92.4845383,70.0520005 92.3985379,69.96 C92.3125374,69.8679995 92.1985386,69.7880003 92.0565379,69.72 C91.9145372,69.6519997 91.7525388,69.5910003 91.5705379,69.537 C91.388537,69.4829997 91.2025388,69.4240003 91.0125379,69.36 C90.8225369,69.2959997 90.6365388,69.2210004 90.4545379,69.135 C90.272537,69.0489996 90.1105386,68.9400007 89.9685379,68.808 C89.8265372,68.6759993 89.7125383,68.514001 89.6265379,68.322 C89.5405374,68.129999 89.4975379,67.8980014 89.4975379,67.626 C89.4975379,67.3739987 89.5475374,67.1340011 89.6475379,66.906 C89.7475384,66.6779989 89.8945369,66.4790009 90.0885379,66.309 C90.2825388,66.1389992 90.5245364,66.0030005 90.8145379,65.901 C91.1045393,65.7989995 91.439536,65.748 91.8195379,65.748 C92.24354,65.748 92.6295361,65.8179993 92.9775379,65.958 C93.3255396,66.0980007 93.6155367,66.2819989 93.8475379,66.51 L93.5115379,67.044 Z" id="Play-Games" fill="#FE7C01"></path>
            <path d="M128.997462,63.324 L130.353462,63.324 C130.493463,63.324 130.610462,63.3569997 130.704462,63.423 C130.798463,63.4890003 130.861462,63.5779994 130.893462,63.69 L132.369462,68.88 C132.405462,69.0080006 132.438462,69.1469992 132.468462,69.297 C132.498462,69.4470008 132.527462,69.6059992 132.555462,69.774 C132.587462,69.6059992 132.622462,69.4470008 132.660462,69.297 C132.698462,69.1469992 132.739462,69.0080006 132.783462,68.88 L134.487462,63.69 C134.519462,63.5979995 134.582462,63.5140004 134.676462,63.438 C134.770463,63.3619996 134.885461,63.324 135.021462,63.324 L135.495462,63.324 C135.635463,63.324 135.751462,63.3569997 135.843462,63.423 C135.935463,63.4890003 135.999462,63.5779994 136.035462,63.69 L137.727462,68.88 C137.815463,69.1360013 137.891462,69.4199984 137.955462,69.732 C137.983462,69.5759992 138.012462,69.4260007 138.042462,69.282 C138.072462,69.1379993 138.103462,69.0040006 138.135462,68.88 L139.611462,63.69 C139.639462,63.5899995 139.701462,63.5040004 139.797462,63.432 C139.893463,63.3599996 140.009461,63.324 140.145462,63.324 L141.411462,63.324 L138.717462,72 L137.259462,72 L135.363462,66.072 C135.339462,65.9959996 135.314462,65.9140004 135.288462,65.826 C135.262462,65.7379996 135.237462,65.6440005 135.213462,65.544 C135.189462,65.6440005 135.164462,65.7379996 135.138462,65.826 C135.112462,65.9140004 135.087462,65.9959996 135.063462,66.072 L133.149462,72 L131.691462,72 L128.997462,63.324 Z M144.148847,65.844 L144.148847,72 L142.666847,72 L142.666847,65.844 L144.148847,65.844 Z M144.370847,64.05 C144.370847,64.1780006 144.344847,64.2979994 144.292847,64.41 C144.240846,64.5220006 144.171847,64.6199996 144.085847,64.704 C143.999846,64.7880004 143.898847,64.8549998 143.782847,64.905 C143.666846,64.9550002 143.542847,64.98 143.410847,64.98 C143.282846,64.98 143.161847,64.9550002 143.047847,64.905 C142.933846,64.8549998 142.834847,64.7880004 142.750847,64.704 C142.666846,64.6199996 142.599847,64.5220006 142.549847,64.41 C142.499846,64.2979994 142.474847,64.1780006 142.474847,64.05 C142.474847,63.9179993 142.499846,63.7940006 142.549847,63.678 C142.599847,63.5619994 142.666846,63.4620004 142.750847,63.378 C142.834847,63.2939996 142.933846,63.2270003 143.047847,63.177 C143.161847,63.1269997 143.282846,63.102 143.410847,63.102 C143.542847,63.102 143.666846,63.1269997 143.782847,63.177 C143.898847,63.2270003 143.999846,63.2939996 144.085847,63.378 C144.171847,63.4620004 144.240846,63.5619994 144.292847,63.678 C144.344847,63.7940006 144.370847,63.9179993 144.370847,64.05 Z M146.118231,72 L146.118231,65.844 L147.024231,65.844 C147.216232,65.844 147.342231,65.9339991 147.402231,66.114 L147.504231,66.6 C147.628232,66.4719994 147.75923,66.3560005 147.897231,66.252 C148.035232,66.1479995 148.18123,66.0580004 148.335231,65.982 C148.489232,65.9059996 148.65423,65.8480002 148.830231,65.808 C149.006232,65.7679998 149.19823,65.748 149.406231,65.748 C149.742233,65.748 150.04023,65.8049994 150.300231,65.919 C150.560232,66.0330006 150.77723,66.192999 150.951231,66.399 C151.125232,66.605001 151.257231,66.8509986 151.347231,67.137 C151.437232,67.4230014 151.482231,67.7379983 151.482231,68.082 L151.482231,72 L150.000231,72 L150.000231,68.082 C150.000231,67.7059981 149.913232,67.415001 149.739231,67.209 C149.56523,67.002999 149.304233,66.9 148.956231,66.9 C148.70023,66.9 148.460232,66.9579994 148.236231,67.074 C148.01223,67.1900006 147.800232,67.347999 147.600231,67.548 L147.600231,72 L146.118231,72 Z M161.403,63.324 L161.403,64.608 L157.557,64.608 L157.557,67.176 L160.803,67.176 L160.803,68.466 L157.557,68.466 L157.557,72 L155.931,72 L155.931,63.324 L161.403,63.324 Z M165.124384,65.748 C165.584387,65.748 166.001383,65.8219993 166.375384,65.97 C166.749386,66.1180007 167.068383,66.3279986 167.332384,66.6 C167.596386,66.8720014 167.800384,67.203998 167.944384,67.596 C168.088385,67.988002 168.160384,68.4259976 168.160384,68.91 C168.160384,69.3980024 168.088385,69.837998 167.944384,70.23 C167.800384,70.622002 167.596386,70.9559986 167.332384,71.232 C167.068383,71.5080014 166.749386,71.7199993 166.375384,71.868 C166.001383,72.0160007 165.584387,72.09 165.124384,72.09 C164.664382,72.09 164.246386,72.0160007 163.870384,71.868 C163.494383,71.7199993 163.173386,71.5080014 162.907384,71.232 C162.641383,70.9559986 162.435385,70.622002 162.289384,70.23 C162.143384,69.837998 162.070384,69.3980024 162.070384,68.91 C162.070384,68.4259976 162.143384,67.988002 162.289384,67.596 C162.435385,67.203998 162.641383,66.8720014 162.907384,66.6 C163.173386,66.3279986 163.494383,66.1180007 163.870384,65.97 C164.246386,65.8219993 164.664382,65.748 165.124384,65.748 Z M165.124384,70.95 C165.636387,70.95 166.015383,70.7780017 166.261384,70.434 C166.507386,70.0899983 166.630384,69.5860033 166.630384,68.922 C166.630384,68.2579967 166.507386,67.7520017 166.261384,67.404 C166.015383,67.0559983 165.636387,66.882 165.124384,66.882 C164.604382,66.882 164.220386,67.0569982 163.972384,67.407 C163.724383,67.7570018 163.600384,68.2619967 163.600384,68.922 C163.600384,69.5820033 163.724383,70.0849983 163.972384,70.431 C164.220386,70.7770017 164.604382,70.95 165.124384,70.95 Z M172.241769,65.748 C172.701771,65.748 173.118767,65.8219993 173.492769,65.97 C173.866771,66.1180007 174.185768,66.3279986 174.449769,66.6 C174.71377,66.8720014 174.917768,67.203998 175.061769,67.596 C175.20577,67.988002 175.277769,68.4259976 175.277769,68.91 C175.277769,69.3980024 175.20577,69.837998 175.061769,70.23 C174.917768,70.622002 174.71377,70.9559986 174.449769,71.232 C174.185768,71.5080014 173.866771,71.7199993 173.492769,71.868 C173.118767,72.0160007 172.701771,72.09 172.241769,72.09 C171.781767,72.09 171.363771,72.0160007 170.987769,71.868 C170.611767,71.7199993 170.29077,71.5080014 170.024769,71.232 C169.758768,70.9559986 169.55277,70.622002 169.406769,70.23 C169.260768,69.837998 169.187769,69.3980024 169.187769,68.91 C169.187769,68.4259976 169.260768,67.988002 169.406769,67.596 C169.55277,67.203998 169.758768,66.8720014 170.024769,66.6 C170.29077,66.3279986 170.611767,66.1180007 170.987769,65.97 C171.363771,65.8219993 171.781767,65.748 172.241769,65.748 Z M172.241769,70.95 C172.753771,70.95 173.132768,70.7780017 173.378769,70.434 C173.62477,70.0899983 173.747769,69.5860033 173.747769,68.922 C173.747769,68.2579967 173.62477,67.7520017 173.378769,67.404 C173.132768,67.0559983 172.753771,66.882 172.241769,66.882 C171.721766,66.882 171.33777,67.0569982 171.089769,67.407 C170.841768,67.7570018 170.717769,68.2619967 170.717769,68.922 C170.717769,69.5820033 170.841768,70.0849983 171.089769,70.431 C171.33777,70.7770017 171.721766,70.95 172.241769,70.95 Z M181.063153,72 C180.871152,72 180.745154,71.9100009 180.685153,71.73 L180.565153,71.136 C180.437153,71.2800007 180.303154,71.4099994 180.163153,71.526 C180.023153,71.6420006 179.872154,71.7419996 179.710153,71.826 C179.548153,71.9100004 179.374154,71.9749998 179.188153,72.021 C179.002152,72.0670002 178.801154,72.09 178.585153,72.09 C178.249152,72.09 177.941155,72.0200007 177.661153,71.88 C177.381152,71.7399993 177.140154,71.5370013 176.938153,71.271 C176.736152,71.0049987 176.580154,70.676002 176.470153,70.284 C176.360153,69.891998 176.305153,69.4440025 176.305153,68.94 C176.305153,68.4839977 176.367153,68.060002 176.491153,67.668 C176.615154,67.275998 176.793152,66.9360014 177.025153,66.648 C177.257155,66.3599986 177.535152,66.1350008 177.859153,65.973 C178.183155,65.8109992 178.547151,65.73 178.951153,65.73 C179.295155,65.73 179.589152,65.7849995 179.833153,65.895 C180.077155,66.0050006 180.295152,66.1519991 180.487153,66.336 L180.487153,63.084 L181.969153,63.084 L181.969153,72 L181.063153,72 Z M179.089153,70.914 C179.397155,70.914 179.659152,70.8500006 179.875153,70.722 C180.091154,70.5939994 180.295152,70.4120012 180.487153,70.176 L180.487153,67.416 C180.319153,67.211999 180.136154,67.0680004 179.938153,66.984 C179.740152,66.8999996 179.527155,66.858 179.299153,66.858 C179.075152,66.858 178.872154,66.8999996 178.690153,66.984 C178.508152,67.0680004 178.354154,67.1949992 178.228153,67.365 C178.102153,67.5350009 178.005154,67.7509987 177.937153,68.013 C177.869153,68.2750013 177.835153,68.5839982 177.835153,68.94 C177.835153,69.3000018 177.864153,69.6049987 177.922153,69.855 C177.980154,70.1050013 178.063153,70.3089992 178.171153,70.467 C178.279154,70.6250008 178.411153,70.7389996 178.567153,70.809 C178.723154,70.8790003 178.897152,70.914 179.089153,70.914 Z" id="Win-Food" fill="#FE7C01"></path>
            <g id="Logo" transform="translate(16.000000, 13.000000)">
                <path d="M5.78853535e-16,28.9714257 L5.78853535e-16,28.3412553 L5.78853535e-16,27.7102212 L5.78853535e-16,14.5310665 C5.78853535e-16,13.7117155 0.697352321,13.0176211 1.52244395,13.0176211 C2.41010176,13.0176211 3.10788857,13.7112836 3.10788857,14.5310665 L3.10788857,19.0083423 C5.77216548,15.4139096 10.0857567,13.0176211 14.9063947,13.0176211 C23.2794019,13.0176211 29.9405286,19.8907535 29.9405286,28.3412553 C29.9405286,36.7278331 23.2798364,43.7275179 14.9063947,43.7275179 C10.0853222,43.7275179 5.77216548,41.3307975 3.10788857,37.6737364 L3.10788857,55.330167 C3.10788857,56.149518 2.41010176,56.8436123 1.52244395,56.8436123 C0.697786809,56.8436123 0,56.1499499 0,55.330167 L5.78853535e-16,28.9714257 Z M3.10788857,28.3412553 C3.10788857,35.1517594 8.49944306,40.6375669 14.9063947,40.7006272 C21.5036518,40.6375669 26.8317711,35.1513275 26.8317711,28.3412553 C26.8317711,21.5311832 21.5036518,16.1075721 14.9068292,16.1075721 C8.62718236,16.1075721 3.36206371,21.2789423 3.10832306,27.8367736 L3.10832306,28.3412553 L3.10788857,28.3412553 Z" id="Shape" fill="#52A8FF" fill-rule="nonzero"></path>
                <path d="M74.2004405,14.9822346 L74.2004405,43.1635766 C74.2004405,43.9924652 73.5013453,44.6938326 72.6741916,44.6938326 C71.8470379,44.6938326 71.1479427,43.992902 71.1479427,43.1635766 L71.1479427,38.5090478 C68.4770071,42.2076033 64.2162289,44.6938326 59.4471366,44.6938326 C51.2435486,44.6938326 44.6938326,37.6168351 44.6938326,29.0724689 C44.6938326,20.5294127 51.2435486,13.4515419 59.4471366,13.4515419 C64.2162289,13.4515419 68.4770071,15.8744472 71.1479427,19.572566 L71.1479427,14.9822346 C71.1479427,14.0895853 71.8470379,13.4519786 72.6741916,13.4519786 C73.5013453,13.4519786 74.2004405,14.0895853 74.2004405,14.9822346 Z M71.1479427,29.0724689 C71.1479427,22.0592321 65.8701008,16.44873 59.4471366,16.44873 C53.0877661,16.44873 47.7463304,22.0596688 47.7463304,29.0724689 C47.7463304,36.0865791 53.0882016,41.6333205 59.4471366,41.6333205 C65.8701008,41.6333205 71.1479427,36.0865791 71.1479427,29.0724689 Z" id="Shape" fill="#4BAAF8" fill-rule="nonzero"></path>
                <path d="M35.5814978,1.51752724 C35.5814978,0.695533318 36.2629486,0 37.0692259,0 C37.9370673,0 38.6189427,0.695100234 38.6189427,1.51752724 L38.6189427,42.7423847 C38.6189427,43.5643786 37.9370673,44.2599119 37.0692259,44.2599119 C36.2633732,44.2599119 35.5814978,43.5648117 35.5814978,42.7423847 L35.5814978,1.51752724 Z" id="Shape" fill="#52A8FF" fill-rule="nonzero"></path>
                <path d="M80.2761967,14.9028949 C80.2761967,14.0828091 80.9713689,13.4519739 81.7302111,13.4519739 C82.6159602,13.4519739 83.3111324,14.0828091 83.3111324,14.9028949 L83.3111324,31.6822475 C83.3111324,36.9812633 87.5475684,41.2078592 92.7962271,41.2078592 C98.1081227,41.2078592 102.344992,36.9812633 102.407796,31.6822475 L102.407796,14.9028949 C102.407796,14.6505608 102.471032,14.3351432 102.660743,14.1458927 C102.660743,14.0828091 102.72398,14.0192935 102.72398,13.9566421 C102.787217,13.9566421 102.787217,13.8935586 102.850887,13.8935586 C102.976927,13.704308 103.229875,13.578141 103.419585,13.5146254 L103.546059,13.5146254 C103.609296,13.5146254 103.672533,13.4515419 103.735769,13.4515419 L103.92548,13.4515419 L104.115191,13.4515419 C104.368138,13.5146254 104.621085,13.6407924 104.874033,13.7665274 C105.000073,13.8931265 105.189784,14.081945 105.253021,14.2711955 C105.379928,14.4604461 105.442731,14.7127802 105.442731,14.9024628 L105.442731,31.6818154 L105.442731,32.2495671 L105.442731,41.9013459 C105.442731,49.9760366 98.8660987,56.4096916 90.7089779,56.4096916 C88.4324512,56.4096916 86.2819651,55.842372 84.3220558,54.9592027 C83.6268836,54.5180501 83.3102662,53.6344488 83.6896873,52.94053 C84.0691084,52.1835278 84.8911875,51.9947093 85.6500297,52.1835278 C87.1677141,52.94053 88.938346,53.3816826 90.7089779,53.3816826 C97.1587037,53.3816826 102.344126,48.2723494 102.407362,41.9013459 L102.407362,39.8826732 C100.068032,42.531749 96.6528088,44.2980876 92.795794,44.2980876 C85.9034102,44.2350041 80.2753304,38.6210027 80.2753304,31.6818154 L80.2753304,14.9028949 L80.2761967,14.9028949 Z" id="Shape" fill="#52A8FF" fill-rule="nonzero"></path>
                <path d="M122.799415,10.6226907 L122.799415,11.508348 L124.69743,11.508348 C126.596311,11.508348 128.177918,13.0258752 128.177918,14.9855815 C128.177918,16.8824905 126.596311,18.462815 124.69743,18.462815 L122.799415,18.462815 L122.799415,40.7826784 C122.799415,42.6795874 121.280656,44.2599119 119.318927,44.2599119 C117.357197,44.2599119 115.838438,42.6795874 115.838438,40.7826784 L115.838438,18.462815 L114.19355,18.462815 C112.23182,18.462815 110.64978,16.8824905 110.64978,14.9855815 C110.64978,13.0258752 112.231386,11.508348 114.19355,11.508348 L115.838438,11.508348 L115.838438,10.6226907 C115.838438,8.2836026 116.091565,6.26023295 117.040789,4.4265542 C117.926731,2.52921207 119.698616,1.07534821 121.597064,0.505842413 C122.862697,0.126893688 124.065047,0 125.393961,0 C127.292409,0 128.874449,1.58075754 128.874449,3.47766659 C128.874449,5.43780594 127.292409,7.01856348 125.393961,7.01856348 C124.571733,7.01856348 124.001766,7.08179378 123.748639,7.20825439 C123.495513,7.27148469 123.432231,7.33428191 123.368949,7.39794529 C123.305668,7.39794529 122.799415,8.28316951 122.799415,10.6226907 Z" id="Shape" fill="#52A8FF" fill-rule="nonzero"></path>
                <path d="M146.787397,44.2599119 C139.585095,44.2599119 133.647577,38.304621 133.647577,31.0826808 L133.647577,15.9414708 C133.647577,14.1675544 135.16376,12.5837004 136.995382,12.5837004 C138.890611,12.5837004 140.343187,14.1675544 140.343187,15.9414708 L140.343187,31.0826808 C140.343187,34.6938679 143.18603,37.544805 146.787397,37.544805 C150.451073,37.544805 153.357524,34.6943018 153.420265,31.0826808 L153.420265,15.9414708 C153.420265,14.1675544 154.8101,12.5837004 156.705328,12.5837004 C158.474208,12.5837004 160.11674,14.1675544 160.11674,15.9414708 L160.11674,31.0826808 C160.11674,38.304621 154.052008,44.2599119 146.787397,44.2599119 Z" id="Shape" fill="#52A8FF" fill-rule="nonzero"></path>
                <path d="M169.631506,0 C171.570587,0 173.134361,1.58075754 173.134361,3.47723351 L173.134361,40.7826784 C173.134361,42.6791544 171.571015,44.2599119 169.631506,44.2599119 C167.755405,44.2599119 166.19163,42.6791544 166.19163,40.7826784 L166.19163,3.47723351 C166.19163,1.58075754 167.755405,0 169.631506,0 Z" id="Shape" fill="#52A8FF" fill-rule="nonzero"></path>
                <path d="M183.083048,0 C185.022128,0 186.585903,1.58075754 186.585903,3.47723351 L186.585903,40.7826784 C186.585903,42.6791544 185.022557,44.2599119 183.083048,44.2599119 C181.206947,44.2599119 179.643172,42.6791544 179.643172,40.7826784 L179.643172,3.47723351 C179.642743,1.58075754 181.206947,0 183.083048,0 Z" id="Shape" fill="#52A8FF" fill-rule="nonzero"></path>
                <path d="M193.037368,0 L193.037368,0.465231525 L191.799827,0.465231525 L191.799827,3.90528634 L191.29481,3.90528634 L191.29481,0.465231525 L190.057269,0.465231525 L190.057269,0 L193.037368,0 Z M193.479883,0 L194.192406,0 L195.247442,3.30181459 L196.294977,0 L197,0 L197,3.90528634 L196.527484,3.90528634 L196.527484,1.60039645 C196.527484,1.52064207 196.529151,1.38860625 196.532484,1.20428503 C196.535818,1.01996381 196.537485,0.82235316 196.537485,0.611447147 L195.48995,3.90528634 L194.997433,3.90528634 L193.942398,0.611447147 L193.942398,0.731078111 C193.942398,0.82678336 193.944482,0.972554447 193.948648,1.16839574 C193.952815,1.36423704 193.954899,1.50823584 193.954899,1.60039645 L193.954899,3.90528634 L193.479883,3.90528634 L193.479883,0 Z" id="TM" fill="#52A8FF"></path>
                <path d="M52.1967636,41.1989084 C56.1736919,44.7150003 62.1778374,43.533983 66.3898678,40.9419198 C66.1655305,37.6436812 64.6946354,33.9079967 64.6946354,33.9079967 L53.1905651,33.845815 C53.1905651,33.845815 51.6344132,37.7632614 51.6365661,41.111941 C51.8191362,41.0441065 52.0340006,41.0536729 52.1967636,41.1989084 Z" id="Shape" fill="#013451" fill-rule="nonzero"></path>
                <path d="M68.5590449,28.0752801 C68.6089858,33.3967221 64.2663182,36.399437 58.8748917,36.4487256 C53.4834652,36.4980143 49.0838474,33.57615 49.0334684,28.254708 C48.9835275,22.933266 53.302539,17.4064547 58.6948416,17.3571661 C64.0862681,17.3074451 68.509104,22.7538381 68.5590449,28.0752801 Z" id="Shape" fill="#013451" fill-rule="nonzero"></path>
                <path d="M64.0792221,25.6400226 C61.542769,25.1823709 60.9603719,28.9346856 60.9603719,28.9346856 L56.8475412,29.2221683 C56.8475412,29.2221683 57.4685644,25.8402721 54.3286844,25.7324124 C51.1879461,25.6254121 51.1033976,29.6454424 51.2394477,31.1000445 C51.4660546,33.5490186 54.7394096,34.0818714 54.7394096,34.0818714 C54.7394096,34.0818714 53.8883459,35.532606 53.4102395,37.9639616 C53.1939328,39.0674824 52.9922183,40.2517907 53.0205442,41.2981588 C56.5788745,43.8584303 61.4633708,43.1579868 65.3053891,41.2173714 C65.2182655,40.0085692 64.9337193,38.7585138 64.7435926,38.0404517 C64.1148441,35.6679678 63.4757952,34.1209759 63.4757952,34.1209759 C63.4757952,34.1209759 66.4062355,32.8631855 66.7397082,30.9552289 C67.0409925,29.2393571 66.6165336,26.0968149 64.0792221,25.6400226 Z" id="Shape" fill="#F1F1F2" fill-rule="nonzero"></path>
                <circle id="Oval" fill="#231F20" fill-rule="nonzero" cx="54.0231278" cy="28.8557269" r="1"></circle>
                <circle id="Oval" fill="#231F20" fill-rule="nonzero" cx="64.003304" cy="28.4218062" r="1"></circle>
                <path d="M49.9951098,37.3250511 C49.5307339,37.6745299 49.228369,37.948907 49.0330396,38.1703715 C49.080102,38.2360855 49.1259148,38.3030796 49.1796408,38.3645264 C49.3708054,38.5851375 49.5702996,38.7984945 49.7781234,39.0028905 C49.9438827,39.1658952 50.1117244,39.3284733 50.2828979,39.4867841 C50.4753119,39.4338716 50.6739731,39.3472487 50.8747168,39.2119803 C51.8942612,38.5241174 52.2132854,38.4161588 52.2132854,38.4161588 L52.5044053,35.5814978 C52.5039888,35.5819245 51.50152,36.1934056 49.9951098,37.3250511 Z" id="Shape" fill="#013451" fill-rule="nonzero"></path>
                <path d="M66.0564342,37.3171806 C66.0564342,37.3171806 66.6481747,37.2747266 68.1614234,36.1144616 C69.7144283,34.9222467 69.4407378,33.3181836 69.3495077,33.0407004 C69.2578591,32.7623418 68.0258336,33.4595512 67.0013777,34.1646387 C65.9769217,34.8701638 65.5220264,35.4325707 65.5220264,35.4325707" id="Shape" fill="#013451" fill-rule="nonzero"></path>
                <path d="M56.8436123,30.12072 C56.8436123,30.12072 57.9853692,31.2833936 59.0881976,31.2411678 C60.1905835,31.1976878 61.1828194,29.9405286 61.1828194,29.9405286" id="Shape" fill="#FAAC18" fill-rule="nonzero"></path>
                <path d="M56.4352667,29.8808112 C56.1566281,29.6093093 58.2364513,27.7755241 58.7080588,27.7709366 C59.1800904,27.766349 61.3498244,29.1417921 61.1725474,29.5721915 C60.8213864,30.4288198 57.276696,30.702407 56.4352667,29.8808112 Z" id="Shape" fill="#F6921E" fill-rule="nonzero"></path>
                <path d="M74.2004405,14.9822346 L74.2004405,43.1635766 C74.2004405,43.9924652 73.5013453,44.6938326 72.6741916,44.6938326 C71.8470379,44.6938326 71.1479427,43.992902 71.1479427,43.1635766 L71.1479427,38.5090478 C68.4770071,42.2076033 64.2162289,44.6938326 59.4471366,44.6938326 C51.2435486,44.6938326 44.6938326,37.6168351 44.6938326,29.0724689 C44.6938326,20.5294127 51.2435486,13.4515419 59.4471366,13.4515419 C64.2162289,13.4515419 68.4770071,15.8744472 71.1479427,19.572566 L71.1479427,14.9822346 C71.1479427,14.0895853 71.8470379,13.4519786 72.6741916,13.4519786 C73.5013453,13.4519786 74.2004405,14.0895853 74.2004405,14.9822346 Z M71.1479427,29.0724689 C71.1479427,22.0592321 65.8701008,16.44873 59.4471366,16.44873 C53.0877661,16.44873 47.7463304,22.0596688 47.7463304,29.0724689 C47.7463304,36.0865791 53.0882016,41.6333205 59.4471366,41.6333205 C65.8701008,41.6333205 71.1479427,36.0865791 71.1479427,29.0724689 Z" id="Shape" fill="#52A8FF" fill-rule="nonzero"></path>
            </g>
        </g>
    </g>
</svg>